<svg xmlns="http://www.w3.org/2000/svg" viewBox="0 0 512 512">
  <rect width="512" height="512" rx="96" fill="#17685f"/>
  <path d="M256 88 392 144v96c0 84-53 158-136 184-83-26-136-100-136-184v-96l136-56Z" fill="#ffffff"/>
  <path d="M256 128 352 168v72c0 57-35 111-96 133-61-22-96-76-96-133v-72l96-40Z" fill="#17685f"/>
  <path d="M213 260c0-35 25-61 43-88 18 27 43 53 43 88 0 32-18 57-43 57s-43-25-43-57Z" fill="#ffffff"/>
  <path d="M241 284c0-17 11-31 15-39 4 8 15 22 15 39 0 14-6 25-15 25s-15-11-15-25Z" fill="#ffcf66"/>
</svg>
